<?xml version="1.0" encoding="utf-8"?>
<!-- Generator: Adobe Illustrator 23.0.4, SVG Export Plug-In . SVG Version: 6.00 Build 0)  -->
<svg version="1.1" id="Layer_1" xmlns="http://www.w3.org/2000/svg" xmlns:xlink="http://www.w3.org/1999/xlink" x="0px" y="0px"
	 viewBox="0 0 100 100" style="enable-background:new 0 0 100 100;" xml:space="preserve">
<style type="text/css">
	.st0{fill:none;stroke:#000000;stroke-width:4;stroke-linecap:round;stroke-linejoin:round;}
</style>
<path d="M50,5.5c-11.8,0-23.1,4.7-31.5,13c-8.4,8.4-13,19.7-13,31.5s4.7,23.1,13,31.5c8.4,8.4,19.7,13,31.5,13s23.1-4.7,31.5-13
	c8.4-8.4,13-19.7,13-31.5s-4.7-23.1-13-31.5C73.1,10.2,61.8,5.5,50,5.5z M87.6,60c0.5,0.2,0.8,0.6,1,1.1c0.1,0.5,0,1-0.3,1.4
	c-0.4,0.5-4,4.5-7.9,4.5h-0.2c-0.9,0-1.8-0.3-2.6-0.8c-0.5,0.8-1,1.6-1.6,2.3c2.1,0.4,4,1.2,5.8,2.4c0.4,0.3,0.7,0.8,0.7,1.3
	s-0.2,1-0.7,1.3c-0.4,0.3-3.9,2.7-7.3,2.7c-0.5,0-1.1-0.1-1.6-0.2c-1-0.3-1.9-0.9-2.5-1.7c-3,2.4-6.4,4.1-10,5.2l-1.5,0.4
	c-2,0.5-4,1.2-6,1.9c1.2,1.1,2.2,2.5,2.8,4.1c0.3,0.8-0.1,1.7-0.9,2c-0.8,0.3-1.7-0.1-2-0.9c-0.6-1.4-1.5-2.6-2.8-3.5
	c-1.2,0.9-2.2,2.1-2.8,3.5c-0.3,0.8-1.2,1.2-2,0.9s-1.2-1.2-0.9-2c0.6-1.6,1.6-3,2.8-4.1c-1.9-0.8-3.9-1.4-6-1.9l-1.5-0.4
	c-3.7-1.1-7.1-2.8-10-5.2c-0.7,0.8-1.6,1.4-2.6,1.7c-0.5,0.1-1,0.2-1.6,0.2c-3.4,0-6.8-2.4-7.3-2.7c-0.4-0.3-0.7-0.8-0.7-1.3
	s0.2-1,0.7-1.3c1.8-1.2,3.7-2,5.8-2.4c-0.5-0.8-1.1-1.5-1.6-2.3c-0.8,0.5-1.7,0.8-2.6,0.8h-0.2c-3.8,0-7.5-4-7.9-4.5
	c-0.3-0.4-0.5-0.9-0.3-1.4c0.1-0.5,0.5-0.9,1-1.1c2.2-0.8,4.6-1.2,6.9-0.9c-0.2-0.8-0.4-1.5-0.6-2.3c-1,0.3-2.1,0.4-3.1,0.1
	c-3.7-1.1-6-6.2-6.2-6.8c-0.2-0.5-0.2-1,0.1-1.4c0.3-0.4,0.7-0.7,1.3-0.7c0.5,0,4.5-0.1,7.3,1.6c0-0.9,0.1-1.9,0.2-2.8
	c-1.3-0.2-2.5-0.8-3.4-1.9c-2.4-3-1.4-8.5-1.2-9.1c0.1-0.5,0.4-0.9,0.9-1.1s1-0.2,1.4,0.1c1.7,1.1,3.1,2.5,4.3,4
	c0.4-1,0.8-1.9,1.3-2.9c-1.1-0.7-1.9-1.7-2.2-2.9c-1-3.7,2-8.4,2.4-8.9c0.3-0.4,0.8-0.7,1.3-0.7c0.5,0,1,0.2,1.3,0.7
	c1,1.5,1.8,3.1,2.3,4.9c0.5-0.6,1.1-1.1,1.7-1.6c-0.2-1.2,0-2.4,0.5-3.5c1.9-3.4,7.4-4.5,8-4.6c0.5-0.1,1,0.1,1.4,0.4
	c0.4,0.4,0.5,0.9,0.4,1.4c-0.1,0.6-1.2,6.1-4.6,8c-0.8,0.4-1.6,0.6-2.5,0.6c-0.4,0-0.8,0-1.1-0.1c-6,5.4-9.4,13.1-9.4,21.1
	c0,5.8,1.9,11.5,5.3,16.1c3.5,4.7,8.4,8.1,13.9,9.7l1.4,0.4c2.8,0.7,5.5,1.6,8,2.9c2.6-1.3,5.2-2.3,8-2.9l1.4-0.4
	c5.6-1.6,10.5-5.1,13.9-9.7c3.5-4.7,5.3-10.3,5.3-16.1c0-8-3.4-15.7-9.4-21.1c-0.4,0.1-0.8,0.1-1.1,0.1c-0.9,0-1.7-0.2-2.5-0.7
	c-3.4-1.9-4.5-7.4-4.6-8c-0.1-0.5,0.1-1,0.4-1.4c0.4-0.4,0.9-0.5,1.4-0.4c0.6,0.1,6.1,1.2,8,4.6c0.6,1.1,0.8,2.3,0.5,3.5
	c0.6,0.5,1.2,1.1,1.7,1.6c0.5-1.7,1.3-3.4,2.3-4.9c0.3-0.4,0.8-0.7,1.3-0.7c0.5,0,1,0.2,1.3,0.7c0.4,0.5,3.4,5.1,2.4,8.9
	c-0.4,1.2-1.2,2.3-2.3,3c0.5,0.9,0.9,1.9,1.3,2.9c1.2-1.6,2.6-3,4.3-4c0.4-0.3,1-0.3,1.4-0.1s0.8,0.6,0.9,1.1
	c0.1,0.6,1.2,6.1-1.2,9.1c-0.8,1.1-2.1,1.7-3.4,1.9c0.1,0.9,0.2,1.8,0.2,2.8c2.8-1.7,6.8-1.6,7.3-1.6c0.5,0,1,0.3,1.3,0.7
	c0.3,0.4,0.3,1,0.1,1.5c-0.2,0.6-2.5,5.7-6.2,6.8c-1,0.3-2.1,0.3-3.1-0.1c-0.2,0.8-0.4,1.6-0.6,2.3C83,58.8,85.4,59.1,87.6,60
	L87.6,60z"/>
<path d="M31.1,50.7c-0.1-0.1-0.3-0.2-0.6-0.2s-0.4,0.1-0.6,0.2c-0.1,0.1-0.2,0.3-0.2,0.6s0.1,0.4,0.2,0.6l19.3,19.3
	c0.3,0.3,0.8,0.3,1.1,0c0.3-0.3,0.3-0.8,0-1.1L31.1,50.7z"/>
<path class="st0" d="M98.4,50c0,26.8-21.7,48.4-48.4,48.4S1.6,76.8,1.6,50S23.2,1.6,50,1.6S98.4,23.2,98.4,50"/>
</svg>
