<?xml version="1.0" encoding="UTF-8"?>
<svg width="100pt" height="100pt" version="1.1" viewBox="0 0 100 100" xmlns="http://www.w3.org/2000/svg">
 <path d="m69.258 52.586c-0.003906-0.09375-0.023437-0.18359-0.070312-0.27344 0-0.003906-0.003906-0.003906-0.003906-0.007812-0.003906-0.007813-0.015625-0.015626-0.019532-0.023438-0.050781-0.074219-0.11328-0.13672-0.18359-0.17969-0.011719-0.007812-0.015625-0.019531-0.027344-0.027343l-9.0078-5.0352v-10.055c0-0.007813-0.007812-0.015625-0.007812-0.027344-0.003906-0.09375-0.023438-0.18359-0.070312-0.27344 0-0.003906-0.003907-0.003906-0.003907-0.003906-0.007812-0.011719-0.015625-0.019532-0.023437-0.027344-0.046875-0.070313-0.10938-0.12891-0.17969-0.17578-0.011718-0.007812-0.015625-0.019531-0.027344-0.027343l-9.332-5.207c-0.1875-0.10156-0.41016-0.10156-0.59766 0l-9.3281 5.207c-0.011719 0.007812-0.015625 0.019531-0.027344 0.027343-0.070312 0.046876-0.13281 0.10156-0.17969 0.17578-0.007813 0.011718-0.015625 0.015625-0.023438 0.027344 0 0.003906-0.003906 0.003906-0.003906 0.003906-0.046875 0.085937-0.066406 0.17969-0.070313 0.27344 0 0.007813-0.007812 0.015625-0.007812 0.027344v10.059l-9.0195 5.0352c-0.011719 0.007813-0.015625 0.019531-0.023438 0.023437-0.070312 0.046876-0.13281 0.10156-0.18359 0.17969-0.007813 0.011719-0.015626 0.015625-0.023438 0.027344 0 0.003906-0.003906 0.003906-0.003906 0.003906-0.046875 0.085938-0.066406 0.17969-0.070313 0.27344 0 0.007812-0.007812 0.015624-0.007812 0.027343v10.414c0 0.22266 0.12109 0.42578 0.3125 0.53125l9.332 5.1953c0.007812 0.003906 0.015625 0.003906 0.023438 0.007813 0.082031 0.042969 0.17187 0.070312 0.27344 0.070312s0.1875-0.027343 0.27344-0.070312c0.007813-0.003907 0.015626-0.003907 0.023438-0.007813l9.0273-5.0312 9.0273 5.0312c0.007812 0.003906 0.015624 0.003906 0.023437 0.007813 0.082031 0.042969 0.17188 0.070312 0.27344 0.070312 0.097657 0 0.1875-0.027343 0.27344-0.070312 0.007812-0.003907 0.015625-0.003907 0.023438-0.007813l9.3281-5.1953c0.19141-0.10547 0.3125-0.3125 0.3125-0.53125l0.007813-10.418c0-0.007813-0.007813-0.015625-0.007813-0.023437zm-10.531-5.5508l-0.17187 0.097656-7.9375 4.4258v-9.0078l8.1094-4.5273zm-17.441 11.141l8.0977-4.5156v9.0078l-8.0977 4.5156zm18.648 9.0078v-9.0078l8.1094-4.5273v9.0195z"/>
</svg>
