<?xml version="1.0" encoding="UTF-8"?>
<svg width="100pt" height="100pt" version="1.1" viewBox="0 0 100 100" xmlns="http://www.w3.org/2000/svg">
 <g>
  <path d="m49.996 31.707c-13.84 0-25.102 11.258-25.102 25.094 0 13.844 11.262 25.105 25.102 25.105 13.844 0 25.105-11.262 25.105-25.105 0-13.836-11.266-25.094-25.105-25.094zm0 48.547c-12.93 0-23.445-10.52-23.445-23.449 0-12.926 10.52-23.441 23.445-23.441 12.93 0 23.449 10.52 23.449 23.441 0 12.93-10.52 23.449-23.449 23.449z"/>
  <path d="m49.996 40.43c1.082 0 1.9531-0.88281 1.9531-1.9492 0-1.082-0.87109-1.9531-1.9531-1.9531-1.0703 0-1.9492 0.87109-1.9492 1.9531 0 1.0664 0.87891 1.9492 1.9492 1.9492z"/>
  <path d="m49.996 73.453c-1.0703 0-1.9492 0.87891-1.9492 1.957s0.87891 1.9531 1.9492 1.9531c1.082 0 1.9531-0.875 1.9531-1.9531 0-1.0742-0.875-1.957-1.9531-1.957z"/>
  <path d="m68.465 55.84c-1.0742 0-1.9531 0.87891-1.9531 1.9531 0 1.0781 0.87891 1.957 1.9531 1.957 1.0781 0 1.957-0.87891 1.957-1.957 0-1.0742-0.87891-1.9531-1.957-1.9531z"/>
  <path d="m31.527 55.84c-1.0703 0-1.9492 0.87891-1.9492 1.9531 0 1.0781 0.87891 1.957 1.9492 1.957 1.0781 0 1.9531-0.87891 1.9531-1.957 0-1.0742-0.875-1.9531-1.9531-1.9531z"/>
  <path d="m54.535 56.535c-0.011718-0.050781 0-0.10156-0.019531-0.14844l-3.5391-9.2031c-0.17578-0.44531-0.60547-0.74219-1.082-0.74219-0.48047 0-0.90625 0.29688-1.0781 0.74219l-3.5469 9.2031c-0.019531 0.046875-0.007812 0.097656-0.019531 0.14062-0.023438 0.09375-0.03125 0.18359-0.03125 0.26953 0 0.097656 0.007812 0.18359 0.03125 0.27344 0.011719 0.054688 0 0.097657 0.019531 0.14844l3.5469 9.2109c0.17188 0.44531 0.60156 0.73437 1.0781 0.73437 0.47656 0 0.90625-0.28906 1.082-0.73437l3.5391-9.2109c0.019531-0.054688 0.007813-0.10547 0.019531-0.15625 0.019532-0.082031 0.03125-0.16406 0.03125-0.26562 0-0.085937-0.011718-0.16797-0.03125-0.26172zm-4.6406 6.2539l-1.8594-4.832h3.7148z"/>
  <path d="m54.938 26.703v-2.6914c0-0.64062-0.51562-1.1562-1.1562-1.1562h-7.5703c-0.64063 0-1.1562 0.51953-1.1562 1.1562v2.6914c-14.488 2.3711-25.594 14.949-25.594 30.098 0 16.84 13.695 30.543 30.535 30.543s30.543-13.703 30.543-30.543c0-15.148-11.109-27.727-25.602-30.098zm-4.9414 57.332c-15.012 0-27.227-12.215-27.227-27.234 0-15.012 12.215-27.227 27.227-27.227 15.016 0 27.234 12.215 27.234 27.227 0 15.02-12.219 27.234-27.234 27.234z"/>
  <path d="m49.996 21.562c2.4609 0 4.4609-1.9961 4.4609-4.4492s-2-4.4609-4.4609-4.4609c-2.4531 0-4.4492 2.0039-4.4492 4.4609 0 2.4531 1.9922 4.4492 4.4492 4.4492zm0-6.5938c1.1836 0 2.1445 0.96094 2.1445 2.1445 0 1.1797-0.96484 2.1367-2.1445 2.1367-1.1797 0-2.1367-0.95703-2.1367-2.1367 0-1.1797 0.95703-2.1445 2.1367-2.1445z"/>
 </g>
</svg>
