<?xml version="1.0" encoding="UTF-8"?>
<svg width="100pt" height="100pt" version="1.1" viewBox="0 0 100 100" xmlns="http://www.w3.org/2000/svg">
 <g>
  <path d="m20.293 63.043c-4.9648-2.5-6.9453-8.5625-4.4414-13.508 2.4844-4.9453 8.543-6.9336 13.512-4.4219 4.9531 2.5156 6.9258 8.5625 4.4336 13.504-2.5117 4.9492-8.5664 6.9414-13.504 4.4258z"/>
  <path d="m18.926 67.641h18.84l0.14062-16.086c0.14453-6.0312 1.0273-10.441 3.832-14.117 2.5273-3.332 5.0703-7.3594 15.887-10.738 16.125-5.0508 28.91 3.3047 30.445 4.2617 4.9492 3.1094 6.4531 9.6445 3.3516 14.605-0.53125 0.84375-1.1875 1.5469-1.8906 2.1797-0.085938 0.11328-0.11328 0.25-0.21094 0.34766l-17 18.57h20.77c3.1172 0 5.6484 2.5234 5.6484 5.6406 0 3.1289-2.5312 5.6562-5.6484 5.6562l-33.609-0.003907c-2.2422 0-4.2695-1.3242-5.1758-3.3789-0.63281-1.4375-0.58984-3.0234-0.015626-4.4297 0.0625-1.1445 0.30078-2.293 0.95313-3.3242l12.625-20.375c-1.5664-0.054688-3.2148 0.09375-4.8555 0.63672-4.7852 1.5273-8.2031 4.7188-8.2109 4.7188 0 0-0.57812 0.56641-0.86328 0.85937l-5.5156 21.074c-0.042969 0.17969-0.15234 0.30469-0.20703 0.46484-0.097656 0.26562-0.20703 0.51562-0.33984 0.74219-0.19922 0.37891-0.42578 0.70313-0.69531 1.0117-0.17188 0.19141-0.32031 0.38672-0.51563 0.55469-0.33594 0.30078-0.71094 0.52344-1.1016 0.73047-0.20312 0.10937-0.375 0.23437-0.58594 0.31641-0.63281 0.24609-1.3047 0.39844-2.0156 0.39844h-24.035c-3.1133 0-5.6445-1.9023-5.6445-5.0195-0.003906-3.1211 2.5273-5.2969 5.6445-5.2969z"/>
  <path d="m9.582 61.539l0.007813 0.007813s-1.1484 4.9766-3.2148 6.5078c-2.0742 1.5391-4.0234 0.70312-4.9062-0.48438l-0.007812-0.007812c-0.88281-1.1875-1.0547-3.2148 1.0195-4.7539 2.0703-1.5352 7.1016-1.2695 7.1016-1.2695z"/>
  <path d="m11.059 54.305l-0.003906 0.011718s-4.3711 2.6445-6.9062 2.2305c-2.5469-0.41406-3.3086-2.3984-3.0742-3.8555l0.003906-0.015625c0.23828-1.4609 1.5742-2.9844 4.1172-2.5664 2.5391 0.41406 5.8633 4.1953 5.8633 4.1953z"/>
 </g>
</svg>
