<?xml version="1.0" encoding="UTF-8"?>
<svg width="100pt" height="100pt" version="1.1" viewBox="0 0 100 100" xmlns="http://www.w3.org/2000/svg">
 <g>
  <path d="m91.102 79.867s-10.805-7.7773-21.992-11.312c-11.492-3.6367-24.105-2.9844-24.105-2.9844s-2.582 0.3125-2.5742 1.7852c0.011718 1.9297 1.7031 1.9688 2.6484 2.1992 1.0977 0.26953 4.5156 0.66016 10.832 2.4922 4.6758 1.3555 8.2852 3.2266 8.2852 3.2266s-6.957 2.3398-8.4336 6.6289c-0.50391 1.4609-0.12891 2.7148 0.33203 3.5625 1.3984-1.1094 3.7656-2.7344 6.5156-3.5508 3.2148-0.95703 5.1133-0.78906 5.1914-0.78125 0.62109 0.0625 1.0859 0.61719 1.0234 1.2422s-0.60938 1.082-1.2344 1.0234c-0.039063-0.003907-1.6133-0.10938-4.3359 0.69531-3.125 0.92578-5.7695 3.125-6.6133 3.8789-0.10547 0.77344-0.13281 1.7773 0.18359 2.7344 0.19141 0.58203 0.51562 0.97266 0.875 1.2383 1.1641-0.99609 2.7812-2.1719 4.5859-2.8672 2.5938-1.0117 4.1094-0.94922 4.2734-0.9375 0.63281 0.042969 1.1055 0.58203 1.0664 1.207-0.039062 0.62109-0.57422 1.0977-1.1953 1.0625-0.046876 0-1.2344-0.023437-3.3203 0.78516-1.375 0.53516-2.6562 1.4297-3.6445 2.2422-0.058594 0.78125-0.023438 1.8672 0.48047 2.5352 1.957 2.5977 5.0547 1.3945 5.0547 1.3945l3.9297-1.5586s2.3164 2.2305 4.5117 2.7852c5.4805 1.3867 17.75-0.71484 17.75-0.71484z"/>
  <path d="m55.199 0.74609s-2.9453 7.9961-2.9453 9.5781c0 1.5859 1.6836 3.4648 1.6836 5.2461s-7.1836 11.133-7.1836 11.133-0.59766 1.0312-0.30078 1.9219c0.11719 0.35156 0.625 0.84766 1.25 1.0664 1.4375 0.5 3.4141 1.2266 3.4141 1.2266s0.56641 0.13281 0.46094 0.875c-0.082031 0.58594-0.5 0.96875-0.5 0.96875l-1.668 2.3672s-0.5 0.54297-0.27734 1.082c0.16016 0.39453 0.44141 0.48437 0.44141 0.48437s3.0469 1.4062 3.1289 1.4961l-2.125 1.9375s-0.625 0.40234-0.625 1.3125c0 0.80859 0.75 1.3125 0.75 1.3125l3.3711 1.3711s-1.707 5.9766-0.19531 7.7227c3.7578 4.3516 16.824-0.59375 16.824-0.59375s3.0312-0.20312 4.3555 0.59375c3.9609 2.375 16.062 15.559 16.062 15.559l0.070312-66.652z"/>
  <path d="m7.5078 43.488c-0.90625 0-1.707-0.79688-1.707-1.7656s0.79688-1.707 1.707-1.707c0.96875 0 1.7656 0.74219 1.7656 1.707 0 0.96875-0.79688 1.7656-1.7656 1.7656z"/>
  <path d="m9.5 49.98c-0.90625 0.39844-1.8789 0-2.332-0.91016-0.34375-0.91016 0.054687-1.8789 0.96484-2.2227 0.91406-0.34375 1.8828 0.054688 2.2227 0.91016 0.33984 0.91016-0.058594 1.8789-0.85547 2.2227z"/>
  <path d="m8.25 36.543c-0.91406-0.39844-1.3672-1.4258-0.91406-2.3359 0.34375-0.79688 1.3672-1.2539 2.2227-0.85156 0.91406 0.39453 1.3672 1.3672 0.91406 2.2773-0.40234 0.85156-1.3711 1.3086-2.2227 0.91016z"/>
  <path d="m11.492 30.504c-0.67969-0.68359-0.625-1.8203 0-2.4453 0.68359-0.73828 1.7656-0.73828 2.3945 0 0.73438 0.625 0.73438 1.7656 0 2.4453-0.625 0.62891-1.7109 0.68359-2.3945 0z"/>
  <path d="m11.492 55.445c-0.67969-0.68359-0.625-1.8242 0-2.4492 0.68359-0.68359 1.7656-0.68359 2.3945 0 0.73438 0.625 0.73438 1.7656 0 2.4492-0.625 0.625-1.7109 0.67969-2.3945 0z"/>
  <path d="m17.641 59.602c-0.85156-0.34375-1.3086-1.3672-0.90625-2.2227 0.39844-0.91016 1.4219-1.3672 2.2773-0.91016 0.85156 0.34375 1.25 1.3086 0.91016 2.2227-0.33984 0.91016-1.3633 1.25-2.2812 0.91016z"/>
  <path d="m19.18 26.977c-0.91406 0.34375-1.875-0.054687-2.2188-0.96875-0.34375-0.85547 0.054687-1.8789 0.91016-2.2227 0.91406-0.33984 1.8828 0.058594 2.2227 0.96875 0.39453 0.79688-0.003906 1.8789-0.91406 2.2227z"/>
  <path d="m25.219 25.781c-0.96875 0-1.7656-0.74219-1.7656-1.707 0-0.91016 0.79688-1.707 1.7656-1.707 0.96484 0 1.7031 0.79687 1.7031 1.707 0 0.96484-0.73828 1.707-1.7031 1.707z"/>
  <path d="m25.219 61.078c-0.96875 0-1.7656-0.79688-1.7656-1.7031 0-0.97266 0.79688-1.7109 1.7656-1.7109 0.96484 0 1.7031 0.73828 1.7031 1.7109 0 0.91016-0.73828 1.7031-1.7031 1.7031z"/>
  <path d="m32.504 59.656c-0.85547 0.34375-1.8828-0.054688-2.2227-0.91016-0.34375-0.85547 0.054688-1.8203 0.96484-2.2227 0.79688-0.45313 1.8828 0 2.2227 0.91016 0.39844 0.91406-0.054688 1.8828-0.96484 2.2227z"/>
  <path d="m31.363 27.031c-0.90625-0.39844-1.3086-1.3672-0.96875-2.2227 0.39844-0.91016 1.3672-1.3633 2.2812-0.96484 0.85156 0.33984 1.3086 1.3633 0.91016 2.2773-0.34375 0.85547-1.3672 1.25-2.2227 0.91016z"/>
  <path d="m36.43 30.504c-0.67969-0.68359-0.625-1.8203 0-2.4453 0.68359-0.73828 1.8242-0.73828 2.4492 0 0.74219 0.625 0.74219 1.7656 0 2.4453-0.625 0.62891-1.7656 0.68359-2.4492 0z"/>
  <path d="m36.43 55.445c-0.67969-0.68359-0.625-1.8242 0-2.4492 0.68359-0.68359 1.8242-0.68359 2.4492 0 0.74219 0.625 0.74219 1.7656 0 2.4492-0.625 0.625-1.7656 0.67969-2.4492 0z"/>
  <path d="m40.816 50.207c-0.85156-0.33984-1.3125-1.4258-0.91406-2.2227 0.34375-0.91016 1.3672-1.3633 2.2227-0.96875 0.91406 0.39844 1.3125 1.3672 0.96875 2.2773-0.39844 0.80078-1.4219 1.3125-2.2773 0.91406z"/>
  <path d="m42.18 36.656c-0.91016 0.34375-1.8203-0.054688-2.2148-0.91016-0.39844-0.91016 0.054687-1.8203 0.90625-2.2227 0.91016-0.39844 1.8789 0 2.2227 0.91016 0.39844 0.91016-0.054688 1.8789-0.91406 2.2227z"/>
  <path d="m42.867 43.488c-0.96875 0-1.7109-0.79688-1.7109-1.7656s0.74219-1.707 1.7109-1.707c0.91016 0 1.707 0.74219 1.707 1.707 0 0.96875-0.79688 1.7656-1.707 1.7656z"/>
  <path d="m25.191 43.691c-0.96875 0-1.7109-0.79688-1.7109-1.7656 0-0.96484 0.74219-1.707 1.7109-1.707 0.91016 0 1.707 0.74219 1.707 1.707-0.003907 0.96875-0.79688 1.7656-1.707 1.7656z"/>
  <path d="m12.949 43.566c-0.96875 0-1.7109-0.79688-1.7109-1.7656s0.74219-1.707 1.7109-1.707c0.91016 0 1.707 0.74219 1.707 1.707 0 0.96875-0.79688 1.7656-1.707 1.7656z"/>
  <path d="m18.75 44.965c-0.96875 0-1.7109-0.79688-1.7109-1.7656s0.74219-1.707 1.7109-1.707c0.91016 0 1.707 0.74219 1.707 1.707 0 0.96875-0.79688 1.7656-1.707 1.7656z"/>
  <path d="m25.5 55.691c-0.92969 0-1.6719-0.72656-1.6953-1.6602-0.011719-0.45312 0.15234-0.88672 0.46875-1.2148 0.3125-0.32812 0.73047-0.51953 1.1875-0.53125 0.97266 0 1.7227 0.73047 1.7461 1.6602 0.011719 0.45703-0.16016 0.88672-0.46875 1.2227-0.3125 0.32812-0.73828 0.51172-1.1914 0.52344h-0.046875z"/>
  <path d="m19.391 54.242c-0.27344 0-0.55469-0.074219-0.80469-0.20703-0.82422-0.4375-1.1367-1.4766-0.6875-2.3047 0.29687-0.55469 0.87109-0.89453 1.4961-0.89453 0.28125 0 0.5625 0.066406 0.8125 0.19922 0.82422 0.44531 1.1367 1.4766 0.6875 2.3086-0.29688 0.55859-0.875 0.89844-1.5039 0.89844z"/>
  <path d="m31.531 53.926c-0.59766 0-1.1406-0.30469-1.4531-0.81641-0.23828-0.39062-0.3125-0.84766-0.20312-1.2891 0.10938-0.44531 0.38281-0.81641 0.76953-1.0547 0.26953-0.16016 0.57422-0.24609 0.88672-0.24609 0.59766 0 1.1484 0.30469 1.457 0.82031 0.48438 0.80469 0.22656 1.8477-0.57422 2.3359-0.26953 0.16797-0.57422 0.25-0.88281 0.25z"/>
  <path d="m14.805 49.945c-0.58594 0-1.1289-0.29297-1.4414-0.79297-0.24219-0.39062-0.32422-0.84375-0.21875-1.2891 0.10156-0.44531 0.36719-0.81641 0.75781-1.0625 0.26562-0.17188 0.57812-0.26172 0.90234-0.26172 0.59375 0 1.1289 0.30078 1.4453 0.80078 0.49219 0.79297 0.25 1.8516-0.54297 2.3516-0.26562 0.17188-0.57812 0.25391-0.90234 0.25391z"/>
  <path d="m35.891 49.402c-0.28516 0-0.57422-0.078125-0.82422-0.21875-0.39844-0.21875-0.69141-0.57812-0.8125-1.0195-0.12109-0.4375-0.074218-0.89844 0.15234-1.293 0.30078-0.54297 0.86719-0.87891 1.4844-0.87891 0.29297 0 0.57812 0.078124 0.82812 0.21875 0.39453 0.21875 0.68359 0.57812 0.8125 1.0195 0.12109 0.4375 0.066406 0.89453-0.15234 1.293 0 0.007812-0.007812 0.011718-0.011718 0.019531-0.30078 0.53125-0.86719 0.85938-1.4766 0.85938z"/>
  <path d="m37.445 43.312h-0.019531c-0.92969 0-1.6914-0.75781-1.7031-1.6836-0.007812-0.45312 0.17188-0.88672 0.48828-1.207 0.31641-0.32422 0.74609-0.50781 1.1953-0.51172 0.95312 0 1.7148 0.75781 1.7227 1.6836 0.007813 0.45703-0.16406 0.88672-0.48047 1.207-0.32031 0.32031-0.74609 0.50391-1.2031 0.51172z"/>
  <path d="m35.754 37.262c-0.60547 0-1.168-0.32422-1.4727-0.84375-0.23047-0.39062-0.30078-0.84766-0.18359-1.293 0.11719-0.4375 0.39453-0.80469 0.78906-1.0391 0.26172-0.15234 0.5625-0.23828 0.85938-0.23828 0.60547 0 1.1641 0.32422 1.4688 0.84375 0.47656 0.8125 0.20312 1.8555-0.60156 2.332-0.26172 0.15625-0.55859 0.23828-0.85938 0.23828z"/>
  <path d="m14.66 37.195c-0.30469 0-0.60547-0.078124-0.87109-0.23828-0.39062-0.23047-0.66406-0.60547-0.78125-1.0508-0.10937-0.4375-0.042968-0.89844 0.19141-1.2812 0.30469-0.51953 0.86719-0.83594 1.4648-0.83594 0.30469 0 0.60938 0.085938 0.875 0.24219 0.80469 0.47656 1.0664 1.5273 0.59375 2.332-0.3125 0.51562-0.875 0.83203-1.4727 0.83203z"/>
  <path d="m31.285 32.836c-0.29297 0-0.58594-0.078126-0.84766-0.22656-0.39062-0.23047-0.67188-0.59766-0.79297-1.0391-0.11719-0.4375-0.054687-0.89844 0.17188-1.2891 0.30078-0.53125 0.86719-0.85547 1.4766-0.85547 0.29297 0 0.58594 0.078125 0.84766 0.22656 0.39062 0.22656 0.67578 0.59375 0.79297 1.0312 0.11719 0.4375 0.0625 0.90234-0.17188 1.293-0.29688 0.53125-0.86328 0.85938-1.4766 0.85938z"/>
  <path d="m19.145 32.801c-0.60938 0-1.1797-0.32812-1.4844-0.85938-0.21875-0.39844-0.28125-0.85547-0.15625-1.293 0.12109-0.44141 0.40234-0.80469 0.80078-1.0312 0.007812 0 0.019531-0.007813 0.023437-0.007813 0.25-0.14062 0.53125-0.21484 0.81641-0.21484 0.60938 0 1.1797 0.32812 1.4844 0.85938 0.22656 0.39453 0.28125 0.85547 0.15625 1.293-0.11328 0.43359-0.39453 0.79297-0.78125 1.0195-0.007812 0-0.011718 0.007813-0.019531 0.011719-0.25391 0.14844-0.54688 0.22266-0.83984 0.22266z"/>
  <path d="m25.219 31.207c-0.94141 0-1.7031-0.76562-1.7031-1.7031 0-0.94141 0.76953-1.7031 1.7031-1.7031 0.94531 0.007813 1.7109 0.76953 1.7109 1.7109-0.007813 0.93359-0.76953 1.6953-1.7109 1.6953z"/>
  <path d="m22.516 49.594c-0.23828 0-0.46875-0.050781-0.69141-0.14453-0.84766-0.38281-1.2266-1.3867-0.84375-2.2266 0.36719-0.82422 1.3984-1.2148 2.2266-0.84375 0.41016 0.18359 0.72266 0.51172 0.87891 0.93359 0.16016 0.42188 0.14844 0.87891-0.035157 1.2891-0.27344 0.60156-0.87109 0.99219-1.5352 0.99219z"/>
  <path d="m28.051 49.5c-0.64844 0-1.2266-0.35938-1.5117-0.94141-0.19531-0.40234-0.22656-0.85938-0.078124-1.2852 0.14453-0.42969 0.45312-0.76953 0.85547-0.96484 0.23047-0.11719 0.48047-0.17188 0.73828-0.17188 0.64844 0 1.2344 0.35938 1.5156 0.94531 0.19531 0.40234 0.22656 0.85938 0.078126 1.2812-0.14844 0.42578-0.44531 0.76953-0.85547 0.96484-0.23438 0.11719-0.48047 0.17188-0.74219 0.17188z"/>
  <path d="m31.531 45.191c-0.13672 0-0.26953-0.011718-0.40234-0.050781-0.4375-0.10156-0.80469-0.37891-1.0391-0.76172-0.23047-0.38672-0.30469-0.83594-0.19531-1.2695 0.21875-0.89062 1.1484-1.4531 2.0391-1.2344 0.43359 0.10547 0.80469 0.37891 1.0352 0.76172 0.23047 0.38672 0.30078 0.83594 0.19531 1.2695-0.1875 0.76172-0.85937 1.2852-1.6328 1.2852z"/>
  <path d="m30.445 39.766c-0.52344 0-1.0234-0.25-1.3438-0.66406-0.007812-0.007812-0.007812-0.011718-0.011718-0.019531-0.26953-0.35938-0.37891-0.80469-0.3125-1.2539 0.066406-0.44531 0.30469-0.83594 0.66406-1.1055 0.71875-0.53125 1.8242-0.36719 2.3555 0.35547 0.55078 0.74609 0.39062 1.8008-0.35547 2.3555-0.28906 0.21484-0.63281 0.33203-0.99609 0.33203z"/>
  <path d="m20.434 39.176c-0.43359 0-0.84375-0.16406-1.1523-0.45703-0.32422-0.30469-0.51172-0.72656-0.53125-1.1719-0.011719-0.45312 0.14844-0.87891 0.45703-1.2109 0.60938-0.64844 1.7266-0.68359 2.3828-0.074219 0.32422 0.30469 0.51172 0.72266 0.53125 1.1719 0.011718 0.45312-0.14844 0.87891-0.45703 1.207-0.32031 0.33984-0.76562 0.53516-1.2305 0.53516z"/>
  <path d="m25.578 37.121h-0.097656c-0.45312-0.023438-0.85938-0.22656-1.1602-0.5625-0.29687-0.33594-0.44922-0.76953-0.42578-1.2148 0.054688-0.89062 0.78906-1.5898 1.6836-1.5898h0.097656c0.92578 0.054688 1.6367 0.85547 1.582 1.7812-0.054687 0.89062-0.78906 1.5859-1.6797 1.5859z"/>
  <path d="m44.449 73.828c-0.46875 0-0.9375-0.050781-1.3945-0.14844-3.0312-0.65234-5.2266-3.3672-5.2266-6.4609 0-0.46484 0.050781-0.93359 0.14844-1.3945 0.64844-3.0273 3.3672-5.2266 6.4609-5.2266 0.46875 0 0.9375 0.050782 1.3945 0.14844 1.293 0.27734 2.4648 0.92969 3.3789 1.8828 0.44531 0.46484 0.42969 1.1992-0.035157 1.6445-0.46484 0.44141-1.1992 0.42969-1.6445-0.035157-0.59375-0.61719-1.3516-1.0391-2.1914-1.2188-0.29688-0.0625-0.60156-0.097656-0.90625-0.097656-2.0039 0-3.7656 1.4258-4.1875 3.3867-0.0625 0.30078-0.097656 0.60547-0.097656 0.90625 0 2.0039 1.4258 3.7656 3.3906 4.1875 0.80859 0.17188 1.6562 0.10938 2.4297-0.1875 0.59766-0.23047 1.2695 0.070312 1.5039 0.66797 0.23047 0.60156-0.070312 1.2734-0.67188 1.5039-0.75 0.29688-1.543 0.44141-2.3516 0.44141z"/>
 </g>
</svg>
