<?xml version="1.0" encoding="UTF-8"?>
<svg width="100pt" height="100pt" version="1.1" viewBox="0 0 100 100" xmlns="http://www.w3.org/2000/svg">
 <g>
  <path d="m86.18 23.125c0-8.125-5.5234-21.602-20.348-23.102-0.88281-0.085938-1.7617 0.20312-2.4141 0.79687-0.65625 0.59766-1.0273 1.4453-1.0234 2.3281v38.809h-38.957c-1.6094-0.007812-2.9648 1.207-3.125 2.8125-0.085938 0.85156-0.14453 1.7305-0.14453 2.6484v2.2266l-5.8789 9.5508c-0.47656 0.76563-0.59375 1.7031-0.32812 2.5625 0.26953 0.86328 0.89453 1.5664 1.7188 1.9336l3.3984 1.5078c0.050781 4.1562 0.22266 9.125 0.22266 9.125l0.003907-0.003907c0.03125 0.88672 0.4375 1.7188 1.1172 2.2852 0.68359 0.56641 1.5703 0.82031 2.4453 0.69922 0.63281-0.078126 1.2695-0.11328 1.9062-0.10938 1.2227-0.042968 2.4414 0.14453 3.5938 0.55078v19.129c0 0.82812 0.32812 1.625 0.91406 2.2109 0.58594 0.58594 1.3789 0.91406 2.2109 0.91406h27.91-0.003906c0.83203 0 1.625-0.32812 2.2109-0.91406 0.58594-0.58594 0.91406-1.3828 0.91406-2.2109v-23.488c0.30469-2.4414 1.1406-4.7891 2.4453-6.875 2.5234-4.2773 3.9414-9.1172 4.1328-14.082-0.007812-1.6523-0.097656-3.3047-0.27344-4.9531 11.484-2.9258 17.352-11.062 17.352-24.352zm-26.785 40.57c-1.7969 2.9336-2.8672 6.2539-3.125 9.6875v20.367h-21.652v-17.637c0.003906-0.81641-0.3125-1.6016-0.87891-2.1875-2.2852-2.0078-5.2461-3.0742-8.2852-2.9844-0.066406-2.3047-0.13281-5.4258-0.13281-7.8125-0.003906-1.2422-0.74219-2.3594-1.875-2.8555l-1.9648-0.87109 4.4844-7.2148c0.30469-0.49219 0.46484-1.0625 0.46484-1.6406v-2.3359h36.219c0.13281 1.3633 0.19922 2.7695 0.19922 4.2344h0.003906c-0.20703 3.9805-1.3945 7.8438-3.457 11.25zm9.25-22.555v-34.207c9.1094 2.8555 11.285 12.609 11.285 16.188 0 9.8828-3.5156 15.574-11.285 18.016z"/>
  <path d="m30.602 25.586c-0.27344 0.94531-0.37891 1.9336-0.3125 2.918 0.14453 2.0859 1.6484 8.9805 14.91 10.203h0.28906c1.7266 0.078125 3.1875-1.2578 3.2656-2.9844 0.078125-1.7266-1.2578-3.1875-2.9844-3.2656-6.2148-0.57031-9.1211-2.6289-9.2461-4.4102v-0.09375c2.7266 0.67969 5.5117 1.0781 8.3203 1.1953 4.2773 0.54687 8.5977-0.59375 12.043-3.1836 1.1523-1.1133 1.7695-2.668 1.7031-4.2695-0.13281-1.8516-1.0938-3.5469-2.6133-4.6133-3.6484-2.2148-8.0586-2.7891-12.152-1.5859-3.6172 0.76172-6.9844 2.418-9.7969 4.8164-1.5273-0.875-2.4648-1.9531-2.4648-3.1992 0.19922-0.99609 0.80469-1.8672 1.6719-2.3984 3.668-2.8516 11.969-4.5547 22.254-1.9414 0.80859 0.22266 1.6719 0.10937 2.3945-0.3125 0.72266-0.42578 1.2461-1.1172 1.4531-1.9297 0.20703-0.8125 0.078124-1.6758-0.35547-2.3906-0.43359-0.71484-1.1367-1.2305-1.9531-1.4219-13.152-3.3477-22.898-0.625-27.633 3.0625h0.003907c-2.4336 1.6719-3.9453 4.3867-4.0859 7.3359 0.074219 3.582 2.1016 6.832 5.2891 8.4688zm14.664-3.9766-0.003906-0.003906c2.2422-0.64844 4.6328-0.55469 6.8164 0.26953-2.1836 0.92188-4.5586 1.2852-6.918 1.0586-1.0547-0.054688-2.1172-0.14844-3.1523-0.28516 1.0547-0.43359 2.1445-0.78516 3.2539-1.043z"/>
 </g>
</svg>
